<?xml version="1.0" encoding="UTF-8"?>
<svg width="148px" height="37px" viewBox="0 0 148 37" version="1.1" xmlns="http://www.w3.org/2000/svg" xmlns:xlink="http://www.w3.org/1999/xlink">
    <!-- Generator: Sketch 52.6 (67491) - http://www.bohemiancoding.com/sketch -->
    <title>Group</title>
    <desc>Created with Sketch.</desc>
    <g id="assets" stroke="none" stroke-width="1" fill="none" fill-rule="evenodd">
        <g id="Group">
            <path d="M3.75,0 L10.3774356,1.71296296 C10.6528283,1.02794056 10.8663766,0.621659391 11.25,0 L3.75,0 Z M12.9785675,0 C6.71096299,10.017618 15.8486824,15.9629106 22.122503,18.5090221 C28.3963882,21.0551009 34.1232078,25.2010073 27.9633022,26.3665968 C21.8032668,27.5321209 15.8925219,29.1203704 15.8925219,29.1203704 L30.3286203,29.1203704 C32.458913,29.1203704 34.1846463,28.1680361 35.5057581,26.2634601 L54,0.00412263565 L50.712892,0.00412263565 C48.7784352,2.35144899 41.7461429,12.1886404 32.1350313,13.4524869 C22.5239203,14.716426 9.76153614,9.52671391 15.1519774,0.0419397849 L12.9785675,0.00100751334 L12.9785675,0 Z M0,9.59259259 L10.5,11.9907407 C10.5,11.9907407 10.209534,11.4101704 9.9786844,10.839175 C9.72972927,10.2234645 9.58435492,9.59259259 9.58435492,9.59259259 L0,9.59259259 Z M16.6781575,31.8611111 C15.1800777,31.8611111 13.6340795,33.011459 13.2250203,34.43057 C12.815956,35.8495769 13.6986695,37 15.1967492,37 C16.694829,37 18.2408241,35.8495769 18.6500177,34.43057 C19.0590131,33.011459 18.1761703,31.8611111 16.6781575,31.8611111 Z M28.6782699,31.8611111 C27.1801712,31.8611111 25.6340873,33.011459 25.2250211,34.43057 C24.8159524,35.8495769 25.6986795,37 27.1967782,37 C28.6948781,36.9999421 30.2408935,35.8495769 30.6499604,34.43057 C31.0590945,33.011459 30.1762379,31.8611111 28.6782699,31.8611111 Z" id="path5406-copy" fill="#3668D3" fill-rule="nonzero"></path>
            <path d="M72.1181711,11.3479532 L58.1319268,33 L54,33 L60.2142867,23.4093567 L54.6886545,11.3479532 L58.5582367,11.3479532 L62.3786293,20.1491228 L67.9698477,11.3479532 L72.1181711,11.3479532 Z M77.4383644,4.79824561 C77.4383644,5.26608421 77.2470734,5.6705636 76.8644857,6.01169591 C76.4818979,6.35282822 76.0227995,6.52339181 75.4871767,6.52339181 C74.9515539,6.52339181 74.4869901,6.34795497 74.0934713,5.99707602 C73.7108835,5.6267038 73.5195925,5.20273143 73.5195925,4.7251462 C73.5195925,4.24756096 73.7054181,3.84308158 74.0770747,3.51169591 C74.4596625,3.1705636 74.9132954,3 75.4379871,3 C75.9736099,3 76.4381738,3.18031009 76.8316926,3.54093567 C77.2361425,3.89181462 77.4383644,4.31091374 77.4383644,4.79824561 Z M76.3070035,11.3479532 L74.4050054,25.119883 L70.7813712,25.119883 L72.6833693,11.3479532 L76.3070035,11.3479532 Z M82.7585577,11.3479532 L82.5617993,12.7953216 C84.1249434,11.6062319 85.770046,11.0116959 87.4971563,11.0116959 C89.5521989,11.0116959 91.262887,11.6500911 92.6292717,12.9269006 C93.9956565,14.2037101 94.6788386,15.8167544 94.6788386,17.7660819 C94.6788386,19.9298354 93.8972782,21.7524292 92.3341341,23.2339181 C90.781921,24.7056604 88.8526147,25.4415205 86.5461573,25.4415205 C85.3656009,25.4415205 84.398215,25.2758301 83.6439706,24.9444444 C82.856933,24.6130588 82.0207181,24.0136496 81.1353007,23.1461988 L79.7743884,33 L76.1507541,33 L79.1349235,11.3479532 L82.7585577,11.3479532 Z M91.0552044,17.8976608 C91.0552044,16.6793311 90.6616915,15.6803158 89.8746538,14.9005848 C89.0876162,14.1111072 88.0819722,13.7163743 86.8576914,13.7163743 C85.392927,13.7163743 84.1686646,14.1939523 83.1848676,15.1491228 C82.2010706,16.1042933 81.7091795,17.2787455 81.7091795,18.6725146 C81.7091795,19.8908443 82.1245542,20.8703667 82.9553161,21.6111111 C83.786078,22.3713488 84.8573076,22.751462 86.169037,22.751462 C87.5463528,22.751462 88.7050297,22.2836304 89.6451024,21.3479532 C90.5851751,20.3927827 91.0552044,19.2426968 91.0552044,17.8976608 Z M108.90235,12.6783626 L108.443247,15.9678363 C107.699934,15.1198788 106.989425,14.5107231 106.311698,14.1403509 C105.644902,13.7797253 104.857876,13.5994152 103.950597,13.5994152 C102.573281,13.5994152 101.441931,14.052627 100.556514,14.9590643 C99.6710968,15.8655016 99.2283948,17.0302073 99.2283948,18.4532164 C99.2283948,19.7885057 99.6437695,20.8557465 100.474531,21.6549708 C101.316224,22.4639417 102.40385,22.8684211 103.737442,22.8684211 C105.016378,22.8684211 106.339019,22.3762232 107.705403,21.3918129 L107.229904,24.7982456 C105.830726,25.3050708 104.497154,25.5584795 103.229149,25.5584795 C100.966416,25.5584795 99.1245571,24.9005914 97.703517,23.5847953 C96.293408,22.2689993 95.588364,20.5633633 95.588364,18.4678363 C95.588364,16.3138294 96.3480625,14.5156018 97.8674824,13.0730994 C99.3978333,11.6208504 101.299812,10.8947368 103.573477,10.8947368 C105.43176,10.8947368 107.208033,11.4892728 108.90235,12.6783626 Z M125.814894,11.3479532 L123.912896,25.119883 L120.289262,25.119883 L120.502417,23.628655 C118.950203,24.837238 117.343359,25.4415205 115.681835,25.4415205 C113.637724,25.4415205 111.970759,24.8226183 110.680892,23.5847953 C109.391025,22.3469724 108.746101,20.7436746 108.746101,18.7748538 C108.746101,16.5038873 109.483938,14.6423075 110.959633,13.1900585 C112.457191,11.7378095 114.375566,11.0116959 116.714817,11.0116959 C117.818856,11.0116959 118.758914,11.172513 119.535021,11.494152 C120.322059,11.8157911 121.125481,12.3713411 121.945312,13.1608187 L122.19126,11.3479532 L125.814894,11.3479532 Z M121.404226,17.8391813 C121.404226,16.6208516 121.010713,15.6315827 120.223675,14.871345 C119.436638,14.1013607 118.420063,13.7163743 117.17392,13.7163743 C115.818466,13.7163743 114.681651,14.1890791 113.763441,15.1345029 C112.84523,16.0896734 112.386132,17.2592523 112.386132,18.6432749 C112.386132,19.8518579 112.768714,20.8411268 113.533889,21.6111111 C114.299065,22.3810955 115.282847,22.7660819 116.485265,22.7660819 C117.818857,22.7660819 118.972068,22.2836306 119.944934,21.3187135 C120.9178,20.3343031 121.404226,19.1744706 121.404226,17.8391813 Z M132.282845,11.3479532 L132.118879,12.5321637 C133.34316,11.4990202 134.578353,10.9824561 135.824496,10.9824561 C136.917604,10.9824561 137.912317,11.3382031 138.808665,12.0497076 L136.496754,14.7105263 C135.829958,14.2037012 135.163173,13.9502924 134.496377,13.9502924 C134.037272,13.9502924 133.632828,14.030701 133.283033,14.1915205 C132.933239,14.35234 132.629906,14.6057488 132.373026,14.9517544 C132.116145,15.29776 131.902992,15.743662 131.733561,16.2894737 C131.564129,16.8352854 131.430225,17.4883003 131.331846,18.248538 L130.380847,25.119883 L126.757212,25.119883 L128.65921,11.3479532 L132.282845,11.3479532 Z M144.245194,14.3450292 L142.753109,25.119883 L139.129475,25.119883 L140.621559,14.3450292 L138.571992,14.3450292 L138.981906,11.3479532 L141.031473,11.3479532 L141.916886,4.95906433 L145.54052,4.95906433 L144.655107,11.3479532 L148,11.3479532 L147.590087,14.3450292 L144.245194,14.3450292 Z" id="yipcart" fill="#212121"></path>
        </g>
    </g>
</svg>