<?xml version="1.0" encoding="UTF-8"?>
<svg width="58px" height="41px" viewBox="0 0 58 41" version="1.1" xmlns="http://www.w3.org/2000/svg" xmlns:xlink="http://www.w3.org/1999/xlink">
    <!-- Generator: Sketch 52.6 (67491) - http://www.bohemiancoding.com/sketch -->
    <title>path5406 copy</title>
    <desc>Created with Sketch.</desc>
    <g id="Page-1" stroke="none" stroke-width="1" fill="none" fill-rule="evenodd">
        <path d="M4.02777778,0 L11.1461346,1.89814815 C11.4419267,1.13906927 11.6712934,0.688865812 12.0833333,0 L4.02777778,0 Z M13.9399428,0 C7.20807136,11.1006037 17.0226588,17.6886307 23.7612069,20.5099974 C30.4998243,23.331328 36.6508529,27.9254406 30.0346579,29.2170397 C23.4183236,30.5085664 17.0697457,32.2685185 17.0697457,32.2685185 L32.5751847,32.2685185 C34.8632769,32.2685185 36.7168424,31.2132292 38.1358142,29.1027531 L58,0.004568326 L54.4694025,0.004568326 C52.3916527,2.60565969 44.8384498,13.5063312 34.515404,14.9068098 C24.1923589,16.307391 10.4846129,10.5566289 16.2743461,0.0464738157 L13.9399428,0.0011164337 L13.9399428,0 Z M0,10.6296296 L11.2777778,13.287037 C11.2777778,13.287037 10.9657958,12.6437023 10.7178462,12.0109777 C10.45045,11.3287039 10.2943071,10.6296296 10.2943071,10.6296296 L0,10.6296296 Z M17.9135765,35.3055556 C16.3045279,35.3055556 14.6440113,36.5802654 14.2046514,38.1527938 C13.7652861,39.7252068 14.7133858,41 16.3224344,41 C17.931483,41 19.5919963,39.7252068 20.0315005,38.1527938 C20.4707919,36.5802654 19.5225533,35.3055556 17.9135765,35.3055556 Z M30.8025862,35.3055556 C29.1935172,35.3055556 27.5329086,36.5802654 27.0935412,38.1527938 C26.6541711,39.7252068 27.6022853,41 29.2113543,41 C30.8204246,40.9999359 32.4809597,39.7252068 32.9203279,38.1527938 C33.3597682,36.5802654 32.4115147,35.3055556 30.8025862,35.3055556 Z" id="path5406-copy" fill="#FFFFFF" fill-rule="nonzero"></path>
    </g>
</svg>